<svg xmlns="http://www.w3.org/2000/svg" viewBox="0 0 297 300"><g fill="none" stroke="#770e12" stroke-width="2"><path d="M151.25 117.75c.14-.8.66-1.11.87-2.04 5.69-25.43 15.26-49.57 30.37-70.9a.24.24 0 0 0-.12-.36c-21.5-7.51-43.72-8.65-65.3-.35a1.02 1.02 0 0 0-.49 1.51c17.14 26.34 28.28 56.2 31.12 87.62a.27.27 0 0 0 .54.03q1.6-7.65 3.01-15.51M123.98 148.33c-29.44-6.23-55.17-15.45-79.8-33.05a.2.19 27.2 0 0-.3.09c-7.3 21.4-10.65 44.61-1.94 66.15a.69.69 0 0 0 1 .33c27.65-16.88 56.59-28.12 89.14-31.77a.23.23 0 0 0 .03-.45c-2.66-.76-5.79-.81-8.13-1.3M162.65 150.12c32.43 5.47 61.77 13.2 88.8 32.71a.82.82 0 0 0 1.24-.35c8.53-20.88 7.58-44.52.24-65.44a.55.55 0 0 0-.83-.27c-26.52 18.35-57.69 28.35-89.44 32.69a.33.33 0 0 0-.01.66M180.13 255.03c-19.86-27.93-28.33-60.81-32.61-94.28q-.04-.35-.41-.21-.32.11-.34.45-1.55 37.22-19.26 69.83-6.54 12.04-14.3 23.01a.55.55 0 0 0 .28.84q33.05 11.26 66.42 1a.42.42 0 0 0 .22-.64" vector-effect="non-scaling-stroke"/></g><path d="M143.31 0h13.25c32.41 2.13 60.93 14.77 86.86 34.2a.72.72 0 0 1 .02 1.13c-23.3 18.96-42.29 40.72-51.23 70.09a.48.48 0 0 0 .59.61c28.71-7.8 52.41-27.93 71.06-50.46a.35.35 0 0 1 .56.03q12.52 18.56 20.92 39.32c21.64 53.45 10.05 105.12-22.68 150.84a.57.57 0 0 1-.9.03c-19.1-22.85-41.7-41.89-70.31-51.53a.35.35 0 0 0-.45.43c8.75 28.27 23.85 54.32 48.36 71.46q1.19.83.07 1.75c-25.37 20.91-52.48 29.46-84.99 32.1h-13.5c-33.94-2.65-62.3-12.55-87.27-35.79a.91.9-41.8 0 1 .08-1.39c23.4-17.35 43.11-40.82 50.27-69.66a.32.31 88.1 0 0-.4-.38c-27.87 9.26-51.37 27.39-71.39 48.48q-.36.38-.69-.04Q1.96 203.75 0 155.69v-8.25q2.73-52.77 34.42-94.23a.99.99 0 0 1 1.61.06c16.51 24.79 39.65 43.93 68.7 51.45a.34.34 0 0 0 .41-.41c-7.49-30.77-24.63-50.3-48.59-70.81q-.84-.72.06-1.35C82.24 14.04 111.77 2.1 143.31 0Zm31.38 178.44a.27.27 0 0 1 .3-.34q51.42 8.64 85.5 47.73a.65.64-49.9 0 0 1.04-.09c17.37-28.01 27.11-58.71 23.2-91.8-2.5-21.16-10.95-42.59-21.94-60.77a.41.41 0 0 0-.66-.05c-21.58 25.29-50.36 43.79-83.94 47.45a.67.67 0 0 1-.74-.74c3.86-34.02 21.32-61.73 47.28-83.59a.62.62 0 0 0-.08-1.01q-21.56-12.97-44.89-19.25c-36.36-9.79-74.07.09-106.23 18.92a.46.46 0 0 0-.08.73c24.27 23.4 40.32 50 46.15 84.06q.24 1.37-1.12 1.11c-33.1-6.17-61.6-20.34-82.67-47.05a.3.3 0 0 0-.49.02C5.26 118.2 5.85 178.86 32.78 224.49a.61.61 0 0 0 .96.11C57 200.78 86 183.17 118.96 177.77q.3-.05.25.26-8.95 50.79-47.26 84.89a.76.76 0 0 0 .08 1.2c43.74 29.68 105.94 29.88 149.91.56a.7.69-40.9 0 0 .08-1.1c-26.86-23.43-37.17-51.75-47.33-85.14Z"/><path d="M156.61 158.93c4.16 37.45 13.91 69.78 38.26 99.73q.35.42-.15.64c-31.11 13.44-64.53 14.13-95.49-.13q-.48-.23-.17-.66c20.25-27.91 36.5-58.73 39.56-93.68q.28-3.31.09-5.73-.05-.57-.62-.55-56.64 2.21-99.08 38.97a.32.32 0 0 1-.52-.15c-9.44-30.51-15.89-65.84 1.61-94.97q.27-.45.67-.11c27.98 23.57 61.24 34.01 97.31 37.74a.64.63 1.2 0 0 .7-.66c-1.32-28.37-8.71-55.05-24.41-78.97q-6.51-9.92-13.52-19.63-.43-.61.25-.92c30.7-13.94 63.49-12.5 94.47-.14q.97.39.3 1.19c-23.15 27.71-35.25 63.19-39.22 98.79a.56.56 0 0 0 .58.62c36.56-1.55 70.97-15.9 99.89-38.03a.77.77 0 0 1 1.18.32c12.44 29.93 14.05 66.22-1.18 95.64q-.42.81-1.08.2c-27.12-24.68-62.53-37.2-99.04-39.91a.37.36-1.3 0 0-.39.4Zm-5.36-41.18c.14-.8.66-1.11.87-2.04 5.69-25.43 15.26-49.57 30.37-70.9a.24.24 0 0 0-.12-.36c-21.5-7.51-43.72-8.65-65.3-.35a1.02 1.02 0 0 0-.49 1.51c17.14 26.34 28.28 56.2 31.12 87.62a.27.27 0 0 0 .54.03q1.6-7.65 3.01-15.51Zm-27.27 30.58c-29.44-6.23-55.17-15.45-79.8-33.05a.2.19 27.2 0 0-.3.09c-7.3 21.4-10.65 44.61-1.94 66.15a.69.69 0 0 0 1 .33c27.65-16.88 56.59-28.12 89.14-31.77a.23.23 0 0 0 .03-.45c-2.66-.76-5.79-.81-8.13-1.3Zm38.67 1.79c32.43 5.47 61.77 13.2 88.8 32.71a.82.82 0 0 0 1.24-.35c8.53-20.88 7.58-44.52.24-65.44a.55.55 0 0 0-.83-.27c-26.52 18.35-57.69 28.35-89.44 32.69a.33.33 0 0 0-.01.66Zm17.48 104.91c-19.86-27.93-28.33-60.81-32.61-94.28q-.04-.35-.41-.21-.32.11-.34.45-1.55 37.22-19.26 69.83-6.54 12.04-14.3 23.01a.55.55 0 0 0 .28.84q33.05 11.26 66.42 1a.42.42 0 0 0 .22-.64Z"/><path fill="#ed1c24" d="M151.25 117.75q-1.41 7.86-3.01 15.51a.27.27 0 0 1-.54-.03c-2.84-31.42-13.98-61.28-31.12-87.62a1.02 1.02 0 0 1 .49-1.51c21.58-8.3 43.8-7.16 65.3.35a.24.24 0 0 1 .12.36c-15.11 21.33-24.68 45.47-30.37 70.9-.21.93-.73 1.24-.87 2.04ZM123.98 148.33c2.34.49 5.47.54 8.13 1.3a.23.23 0 0 1-.03.45c-32.55 3.65-61.49 14.89-89.14 31.77a.69.69 0 0 1-1-.33c-8.71-21.54-5.36-44.75 1.94-66.15a.2.19 27.2 0 1 .3-.09c24.63 17.6 50.36 26.82 79.8 33.05ZM251.45 182.83c-27.03-19.51-56.37-27.24-88.8-32.71a.33.33 0 0 1 .01-.66c31.75-4.34 62.92-14.34 89.44-32.69a.55.55 0 0 1 .83.27c7.34 20.92 8.29 44.56-.24 65.44a.82.82 0 0 1-1.24.35ZM147.52 160.75c4.28 33.47 12.75 66.35 32.61 94.28a.42.42 0 0 1-.22.64q-33.37 10.26-66.42-1a.55.55 0 0 1-.28-.84q7.76-10.97 14.3-23.01 17.71-32.61 19.26-69.83.02-.34.34-.45.37-.14.41.21Z"/></svg>